<?xml version="1.0" encoding="utf-8"?>
<!-- Generator: Adobe Illustrator 15.0.0, SVG Export Plug-In . SVG Version: 6.00 Build 0)  -->
<!DOCTYPE svg PUBLIC "-//W3C//DTD SVG 1.1//EN" "http://www.w3.org/Graphics/SVG/1.1/DTD/svg11.dtd">
<svg version="1.1" id="图层_1" xmlns="http://www.w3.org/2000/svg" xmlns:xlink="http://www.w3.org/1999/xlink" x="0px" y="0px"
	 width="85.039px" height="28.346px" viewBox="0 0 85.039 28.346" enable-background="new 0 0 85.039 28.346" xml:space="preserve">
<title>logo copy 2</title>
<desc>Created with Sketch.</desc>
<g id="logo-copy-2_2_">
	<path id="PLACEMENT_2_" fill="#FFFFFF" d="M2.925,23.24h2.892c0.409,0,0.723-0.07,0.936-0.211c0.211-0.142,0.316-0.348,0.316-0.621
		c0-0.268-0.105-0.475-0.316-0.623c-0.213-0.147-0.51-0.223-0.895-0.223H2.927L2.925,23.24L2.925,23.24z M2.111,26.056v-5.078h3.756
		c0.64,0,1.14,0.123,1.504,0.366c0.367,0.246,0.552,0.582,0.552,1.009c0,0.439-0.179,0.801-0.531,1.071
		c-0.354,0.271-0.825,0.407-1.416,0.407H2.927v2.225H2.111z M10.785,26.056v-5.078h0.813v4.494h4.277v0.584H10.785z M19.509,24.097
		h2.885l-1.446-2.25L19.509,24.097z M17.395,26.056l3.211-5.078h0.678l3.246,5.078h-0.885l-0.891-1.367h-3.619l-0.865,1.367H17.395z
		 M32.271,24.437l0.652,0.377c-0.303,0.439-0.711,0.78-1.232,1.019c-0.522,0.237-1.115,0.356-1.781,0.356
		c-0.979,0-1.791-0.25-2.43-0.752s-0.959-1.138-0.959-1.906c0-0.772,0.32-1.41,0.963-1.912c0.642-0.501,1.449-0.752,2.426-0.752
		c0.605,0,1.158,0.104,1.656,0.31c0.496,0.204,0.902,0.498,1.215,0.88L32.1,22.433c-0.207-0.306-0.502-0.541-0.893-0.714
		c-0.387-0.173-0.818-0.259-1.299-0.259c-0.734,0-1.344,0.195-1.828,0.586c-0.48,0.395-0.723,0.889-0.723,1.484
		s0.239,1.092,0.723,1.479c0.484,0.389,1.094,0.584,1.828,0.584c0.516,0,0.973-0.101,1.371-0.295
		C31.68,25.105,32.01,24.816,32.271,24.437z M35.902,26.056v-5.078h5.15v0.584h-4.338v1.489h2.623v0.584h-2.623v1.834h4.604v0.587
		H35.902L35.902,26.056z M44.02,26.056v-5.078h0.756l2.645,3.107l2.664-3.107h0.742v5.078h-0.809V22.09l-2.6,3.004l-2.6-3.004v3.966
		H44.02z M54.26,26.056v-5.078h5.15v0.584h-4.338v1.489h2.623v0.584h-2.621v1.834h4.604v0.587H54.26L54.26,26.056z M62.412,26.056
		v-5.078h0.429l4.248,3.795v-3.795h0.817v5.078h-0.414l-4.266-3.796v3.796H62.412z M72.518,26.056v-4.494h-2.752v-0.584h6.33v0.584
		h-2.76v4.494H72.518L72.518,26.056z"/>
	<path id="tm_2_" fill="#FFFFFF" d="M77.363,5.161V2.578h-1.268V2.16h3v0.418h-1.268V5.16L77.363,5.161L77.363,5.161z M80.096,5.161
		v-3h0.48l1.52,1.756l1.521-1.756h0.479v3H83.52V3.004l-1.424,1.67l-1.418-1.669v2.156H80.096z"/>
	<path id="SEAM_2_" fill="#FFFFFF" d="M5.521,5.358c-1.498,0-2.896,0.706-2.896,2.198c0,1.429,1.519,1.898,3.261,2.275
		c2.289,0.486,4.922,0.942,4.922,3.36c0,2.167-2.41,3.108-4.84,3.108c-1.621,0-2.734-0.58-3.523-0.58
		c-0.567,0-0.893,0.268-1.276,0.58l-0.224-3.453h0.041c1.113,1.978,2.938,3.092,4.982,3.092c1.779,0,3.219-0.832,3.219-2.354
		c0-1.568-1.861-1.963-3.807-2.4c-2.086-0.473-4.273-1.006-4.273-3.156c0-1.854,2.025-3.03,4.414-3.03
		c1.621,0,2.676,0.549,3.303,0.549c0.668,0,0.933-0.313,1.193-0.549L10.1,8.186h-0.041C9.148,6.629,7.711,5.358,5.521,5.358z
		 M18.832,5.155h9.216c0.362,0,0.748-0.016,0.971-0.11l0.688,2.717h-0.041c-1.053-1.491-2.207-2.197-4.477-2.197h-3.383v4.804h2.855
		c1.643,0,2.146-0.283,2.836-1.743h0.041v3.658h-0.041c-0.689-1.444-1.195-1.507-2.836-1.507h-2.855v4.961h3.811
		c2.269,0,3.584-0.816,4.658-2.479h0.041l-0.648,2.89H18.832v-0.031c0.972-0.313,1.154-0.94,1.154-1.979V7.163
		c0-1.036-0.184-1.664-1.154-1.978V5.155L18.832,5.155z M43.48,7.084l-2.732,4.979h5.611L43.48,7.084z M40.324,16.114v0.03h-3.201
		v-0.03c0.789-0.313,1.314-1.052,1.904-2.089l5.084-9.027h0.063l5.484,9.39c0.606,1.021,0.854,1.414,1.645,1.729v0.03h-4.215v-0.03
		c0.586-0.188,0.932-0.456,0.932-0.832c0-0.251-0.121-0.564-0.346-0.941l-1.072-1.867h-6.076l-0.83,1.506
		c-0.182,0.33-0.344,0.688-0.344,1.084C39.35,15.532,39.755,15.925,40.324,16.114z M60.193,13.899c0,1.193,0.547,1.9,1.521,2.214
		v0.03h-3.606v-0.03c0.973-0.313,1.521-1.021,1.521-2.214V7.162c0-1.036-0.183-1.664-1.151-1.978V5.154h3.199l5.084,8.9l4.734-8.9
		h2.998v0.031c-0.974,0.313-1.15,0.94-1.15,1.978v6.924c0,1.036,0.385,1.711,1.354,2.025v0.031h-4.478v-0.031
		c0.974-0.314,1.356-0.989,1.356-2.025V6.065l-5.448,10.253h-0.08L60.191,6.065L60.193,13.899L60.193,13.899z"/>
</g>
</svg>
